<svg aria-hidden="true" width="1230" height="156" xmlns="http://www.w3.org/2000/svg" stroke="null" style="vector-effect: non-scaling-stroke;">
 <!-- Created with Method Draw - http://github.com/duopixel/Method-Draw/ -->
 <defs stroke="null">
  <filter stroke="null" style="vector-effect: non-scaling-stroke;" id="svg_36_blur">
   <feGaussianBlur stroke="null" style="vector-effect: non-scaling-stroke;" stdDeviation="0.1"/>
  </filter>
 </defs>
 <g stroke="null">
  <title stroke="null">background</title>
  <rect stroke="null" x="-1" y="-1" width="1232" height="158" id="canvas_background" fill="none"/>
  <g stroke="null" id="canvasGrid" display="none">
   <rect stroke="null" id="svg_1" width="1600" height="1200" x="2" y="2" stroke-width="0" fill="url(#gridpattern)"/>
  </g>
 </g>
 <g stroke="null">
  <title stroke="null">Layer 1</title>
  <g stroke="null" style="vector-effect: non-scaling-stroke;" id="svg_18" filter="url(#svg_36_blur)">
   <path stroke="#edeaea" style="vector-effect: non-scaling-stroke;" fill="none" opacity="0.5" d="m225.498691,88.24985l-1.74997,-0.75013" id="svg_3"/>
   <path stroke="#edeaea" style="vector-effect: non-scaling-stroke;" fill="none" d="m18.249151,72.24988c0.75,-2.49999 5.99999,-7.99998 7.99998,-7.99998c2,0 6.74999,-6.24998 7.49999,-4.74999c0.75,1.5 1.49999,6.49999 3.99999,0.75c2.49999,-5.74999 7.49998,-3.74999 8.49998,-2.74999c1,0.99999 2.74999,4.74999 5.74999,0c2.99999,-4.74999 7.74998,-4.99999 9.99997,-2.75c2.25,2.25 8.99998,9.74998 11.74998,10.99998c2.74999,1.25 11.99997,4.24999 15.49996,7.24998c3.5,3 12.24998,11.74998 15.24997,10.49998c2.99999,-1.25 4.24999,-3.74999 8.74998,-3.49999c4.49999,0.25 10.99998,-1.75 12.24997,-4.99999c1.25,-3.24999 5.74999,4.74999 9.24998,4.74999c3.49999,0 8.99998,-6.49999 11.74998,-7.99998c2.74999,-1.5 5.74998,-4 8.74998,-3.75c2.99999,0.25 6.99998,1.75 9.49998,-2.99999c2.49999,-4.74999 9.24997,5.74999 12.49997,7.74998c3.24999,2 5.99998,6.74999 10.49997,8.24998c4.49999,1.5 10.24998,4.74999 14.49997,4.74999l13.99997,2.75c3.49999,1.99999 7.49998,2.49999 10.24998,-3.49999" id="svg_2"/>
   <path stroke="#edeaea" style="vector-effect: non-scaling-stroke;" fill="none" fill-opacity="null" opacity="0.5" d="m323.248471,73.74988" id="svg_9"/>
   <path stroke="#edeaea" style="vector-effect: non-scaling-stroke;" fill="none" fill-opacity="null" d="m226.248691,84.99986l4.25002,-6.00012c0.24997,0.00013 2.24996,-2.24986 5.24996,0.75013c2.99999,2.99999 8.49998,3.74999 10.49998,2.74999c1.99999,-0.99999 5.49998,-3.49999 11.49997,-3.74999c5.99999,-0.25 8.49998,-2.49999 14.24997,-0.25c5.74998,2.25 11.74997,2 16.24996,1.5c4.49999,-0.5 11.24998,-1 14.74997,0.5c3.49999,1.5 10.24998,1.75 14.24997,6.24999c3.99999,4.49999 4.74999,9.99997 12.74997,6.49998c7.99998,-3.49999 4.49999,-4.49999 9.24998,-3.49999c4.74999,1 11.49997,1.5 14.49997,0.25c2.99999,-1.25 10.74997,1.99999 12.49997,5.24999c1.74999,3.24999 5.99998,8.24998 9.99998,7.74998c3.99999,-0.5 2.49999,5.99999 7.74998,-2c5.24999,-7.99998 8.99998,7.99999 17.74996,9.24998c8.74998,1.25 13.24997,-8.49998 17.99996,-10.24997c4.74999,-1.75 8.99998,-4.99999 12.24997,-9.74998c3.25,-4.74999 15.74997,-9.49998 16.99996,-11.74998c1.25,-2.24999 8.24999,-11.49997 13.74997,-12.74997c5.49999,-1.25 9.74998,-13.24997 12.74998,-12.74997c2.99999,0.5 9.74997,6.74998 11.24997,7.24998c1.5,0.5 22.49995,3.74999 25.99994,9.49998" id="svg_10"/>
   <path stroke="#edeaea" style="vector-effect: non-scaling-stroke;" fill="none" fill-opacity="null" d="m512.248051,69.49989c3.99999,5.99999 10.49998,5.49999 13.49997,6.99998c3,1.5 7.49999,1.5 10.49998,1.5c2.99999,0 10.99997,5.24999 12.49997,7.74998c1.5,2.5 3.24999,8.24999 10.49998,8.24999c7.24998,0 13.99997,1.74999 20.24995,-3c6.24999,-4.74999 8.99998,-6.24998 13.24997,-9.24998c4.24999,-2.99999 9.74998,-8.99998 14.24997,-8.99998c4.49999,0 11.99997,-2.24999 13.49997,-4.24999c1.5,-1.99999 10.49998,-8.49998 16.99996,-4.74999c6.49999,3.74999 13.24997,3.25 16.74997,5.24999c3.49999,2 12.99997,8.49998 17.99996,8.74998c4.99998,0.25 19.74995,2.5 21.99995,3.24999c2.24999,0.75 6.74998,6.24999 13.49997,-0.24999c6.74998,-6.49999 12.49997,-4.25 13.24997,-4.25c0.75,0 8.74998,-5.24998 12.24997,-4.74998c3.49999,0.49999 11.24998,-3 14.49997,-1.25c3.24999,1.74999 11.24997,5.24999 16.24996,5.99998c4.99999,0.75 10.24998,7.99999 14.74997,7.24999c4.49999,-0.75 7.99998,-0.75 12.49997,-4.99999c4.49999,-4.24999 9.74998,-2.49999 9.74998,-2.49999" id="svg_11"/>
   <path stroke="#edeaea" style="vector-effect: non-scaling-stroke;" fill="none" fill-opacity="null" d="m800.997411,76.24988c15.49997,6.74998 8.49998,1.49999 9.49998,3.74999c1,2.24999 6.74998,4.49999 10.24998,4.74999c3.49999,0.25 2.49999,2.24999 13.74997,-2.5c11.24997,-4.74999 12.24997,-0.5 16.24996,-2.24999c3.99999,-1.75 7.74998,-6.99999 11.49997,-6.49999c3.74999,0.5 4.24999,3.49999 12.49998,-1.74999c8.24998,-5.24999 4.49999,-4.25 15.24996,-5.99999c10.74998,-1.75 12.99997,-6.74999 18.99996,-9.49998c5.99999,-2.74999 15.74996,-7.24998 18.99996,-7.24998c3.24999,0 6.74998,1.49999 9.99997,-2.5c3.25,-3.99999 9.99998,-3.74999 13.74997,-5.24999c3.75,-1.49999 13.24997,-6.74998 19.74996,-1.49999c6.49999,5.24998 14.99997,6.49998 18.74996,6.49998c3.74999,0 9.74998,3.99999 15.49996,4.74999c5.74999,0.75 13.74997,8.24998 18.49996,2.5c4.74999,-5.74999 6.49999,-12.99998 12.49997,-12.74998c5.99999,0.25 9.74998,-1.74999 16.24997,-1.74999c6.49998,0 9.74998,-6.49999 14.99997,-5.24999" id="svg_13"/>
   <path stroke="#edeaea" style="vector-effect: non-scaling-stroke;" fill="none" fill-opacity="null" d="m1082.246801,28.24985" id="svg_15"/>
   <path stroke="#edeaea" style="vector-effect: non-scaling-stroke;" fill="none" fill-opacity="null" d="m1067.496821,33.74997l9.24999,-4.25012c0.24999,0.00013 7.49997,-2.74986 9.24997,-1.49987c1.74999,1.25 9.24997,1.5 11.99997,3.74999c2.74999,2.25 5.74999,0 8.49998,3c2.74999,2.99999 7.74998,4.99999 11.49997,4.99999c3.75,0 12.49998,3.49999 14.49997,4.74999c2,1.24999 9.99998,6.74998 19.99996,10.99997c9.99998,4.24999 6.74998,-3.49999 10.99997,3.74999c4.24999,7.24999 4.99999,-0.25 8.74998,4.24999c3.75,4.49999 5.99999,5.99999 9.74998,8.99998c3.74999,3 7.24999,2.75 9.49998,6.49999c2.25,3.74999 9.74998,7.74998 12.99997,6.74998c3.24999,-0.99999 8.74998,0.25 11.49998,-1.49999c2.74999,-1.75 6.24998,2.24999 8.49998,0.25c2.24999,-2 4.99999,-4.99999 8.99998,-1c3.99999,3.99999 6.24998,5.99999 8.74998,3.99999" id="svg_16"/>
  </g>
  <g stroke="null" style="vector-effect: non-scaling-stroke;" id="svg_45">
   <path stroke="#e0e0e0" style="vector-effect: non-scaling-stroke;" fill="none" opacity="0.5" d="m209.247337,88.499955l-1.74997,-0.75013" id="svg_37"/>
   <path stroke="#e0e0e0" style="vector-effect: non-scaling-stroke;" fill="none" d="m1.997797,72.499985c0.75,-2.49998 5.99999,-7.99998 7.99998,-7.99998c2,0 6.74999,-6.24998 7.49999,-4.74998c0.75,1.5 1.49999,6.49998 3.99999,0.75c2.49999,-5.74999 7.49998,-3.74999 8.49998,-2.74999c1,0.99999 2.74999,4.74999 5.74999,0c2.99999,-4.74999 7.74998,-4.99999 9.99997,-2.75c2.25,2.25 8.99998,9.74998 11.74998,10.99998c2.74999,1.25 11.99997,4.24999 15.49996,7.24998c3.5,3 12.24998,11.74998 15.24997,10.49998c2.99999,-1.25 4.24999,-3.74999 8.74998,-3.49999c4.49999,0.25 10.99998,-1.75 12.24997,-4.99999c1.25,-3.24999 5.74999,4.74999 9.24998,4.74999c3.49999,0 8.99998,-6.49999 11.74998,-7.99998c2.74999,-1.5 5.74998,-4 8.74998,-3.75c2.99999,0.25 6.99998,1.75 9.49998,-2.99999c2.49999,-4.74999 9.24997,5.74999 12.49997,7.74998c3.24999,2 5.99998,6.74999 10.49997,8.24998c4.49999,1.5 10.24998,4.74999 14.49997,4.74999l13.99997,2.75c3.49999,1.99999 7.49998,2.49999 10.24998,-3.49999" id="svg_38"/>
   <path stroke="#e0e0e0" style="vector-effect: non-scaling-stroke;" fill="none" fill-opacity="null" opacity="0.5" d="m306.997117,73.999995" id="svg_39"/>
   <path stroke="#e0e0e0" style="vector-effect: non-scaling-stroke;" fill="none" fill-opacity="null" d="m209.997337,85.249965l4.25001,-6.00012c0.24998,0.00013 2.24997,-2.24986 5.24997,0.75013c2.99999,3 8.49998,3.74999 10.49997,2.75c2,-1 5.49999,-3.5 11.49998,-3.74999c5.99998,-0.25 8.49998,-2.5 14.24996,-0.25c5.74999,2.24999 11.74998,1.99999 16.24997,1.49999c4.49999,-0.5 11.24997,-1 14.74997,0.5c3.49999,1.5 10.24997,1.75 14.24996,6.24999c4,4.49999 4.74999,9.99997 12.74998,6.49998c7.99998,-3.49999 4.49999,-4.49999 9.24998,-3.49999c4.74998,1 11.49997,1.5 14.49996,0.25c3,-1.25 10.74998,1.99999 12.49998,5.24999c1.74999,3.24999 5.99998,8.24998 9.99997,7.74998c3.99999,-0.5 2.5,5.99999 7.74999,-1.99999c5.24998,-7.99999 8.99998,7.99998 17.74996,9.24997c8.74998,1.25 13.24997,-8.49998 17.99996,-10.24997c4.74999,-1.75 8.99998,-4.99999 12.24997,-9.74998c3.24999,-4.74999 15.74996,-9.49998 16.99996,-11.74998c1.25,-2.24999 8.24998,-11.49997 13.74997,-12.74997c5.49999,-1.24999 9.74998,-13.24997 12.74997,-12.74997c3,0.5 9.74998,6.74999 11.24998,7.24999c1.49999,0.49999 22.49995,3.74999 25.99994,9.49997" id="svg_40"/>
   <path stroke="#e0e0e0" style="vector-effect: non-scaling-stroke;" fill="none" fill-opacity="null" d="m495.996697,69.750005c3.99999,5.99999 10.49998,5.49999 13.49997,6.99998c3,1.5 7.49999,1.5 10.49998,1.5c2.99999,0 10.99997,5.24998 12.49997,7.74998c1.5,2.5 3.24999,8.24999 10.49998,8.24999c7.24998,0 13.99997,1.74999 20.24995,-3c6.24999,-4.74999 8.99998,-6.24998 13.24997,-9.24998c4.24999,-2.99999 9.74998,-8.99998 14.24997,-8.99998c4.49999,0 11.99997,-2.24999 13.49997,-4.24999c1.5,-1.99999 10.49998,-8.49998 16.99996,-4.74999c6.49999,3.74999 13.24997,3.25 16.74997,5.24999c3.49999,2 12.99997,8.49998 17.99996,8.74998c4.99998,0.25 19.74995,2.5 21.99995,3.24999c2.24999,0.75 6.74998,6.24999 13.49997,-0.24999c6.74998,-6.49999 12.49997,-4.25 13.24997,-4.25c0.75,0 8.74998,-5.24998 12.24997,-4.74998c3.49999,0.49999 11.24998,-3 14.49997,-1.25c3.24999,1.74999 11.24997,5.24999 16.24996,5.99998c4.99999,0.75 10.24998,7.99999 14.74997,7.24999c4.49999,-0.75 7.99998,-0.75 12.49997,-4.99999c4.49999,-4.24999 9.74998,-2.49999 9.74998,-2.49999" id="svg_41"/>
   <path stroke="#e0e0e0" style="vector-effect: non-scaling-stroke;" fill="none" fill-opacity="null" d="m784.746057,76.499985c15.49997,6.74998 8.49998,1.49999 9.49998,3.75c1,2.24998 6.74998,4.49998 10.24998,4.74998c3.49999,0.25 2.49999,2.24999 13.74997,-2.5c11.24997,-4.74998 12.24997,-0.5 16.24996,-2.24998c3.99999,-1.75 7.74998,-6.99999 11.49997,-6.49999c3.74999,0.5 4.24999,3.49999 12.49998,-1.74999c8.24998,-5.24999 4.49999,-4.25 15.24996,-5.99999c10.74998,-1.75 12.99997,-6.74999 18.99996,-9.49998c5.99999,-2.74999 15.74996,-7.24998 18.99996,-7.24998c3.24999,0 6.74998,1.49999 9.99997,-2.5c3.25,-3.99999 9.99998,-3.74999 13.74997,-5.24999c3.75,-1.49999 13.24997,-6.74998 19.74996,-1.49999c6.49999,5.24998 14.99997,6.49998 18.74996,6.49998c3.74999,0 9.74998,3.99999 15.49996,4.74999c5.74999,0.75 13.74997,8.24998 18.49996,2.5c4.74999,-5.74999 6.49999,-12.99998 12.49997,-12.74998c5.99999,0.25 9.74998,-1.74999 16.24997,-1.74999c6.49998,0 9.74998,-6.49999 14.99997,-5.24999" id="svg_42"/>
   <path stroke="#e0e0e0" style="vector-effect: non-scaling-stroke;" fill="none" fill-opacity="null" d="m1065.995447,28.499965" id="svg_43"/>
   <path stroke="#e0e0e0" style="vector-effect: non-scaling-stroke;" fill="none" fill-opacity="null" d="m1051.245467,34.000075l9.24999,-4.25012c0.24999,0.00013 7.49997,-2.74986 9.24997,-1.49987c1.74999,1.25 9.24997,1.5 11.99997,3.74999c2.74999,2.25 5.74999,0 8.49998,3c2.74999,2.99999 7.74998,4.99999 11.49997,4.99999c3.75,0 12.49998,3.49999 14.49997,4.74999c2,1.25 9.99998,6.74999 19.99996,10.99997c9.99998,4.25 6.74998,-3.49999 10.99997,3.75c4.24999,7.24998 4.99999,-0.25 8.74998,4.24998c3.75,4.49999 5.99999,5.99999 9.74998,8.99998c3.74999,3 7.24999,2.75 9.49998,6.5c2.25,3.74998 9.74998,7.74998 12.99997,6.74998c3.24999,-0.99999 8.74998,0.25 11.49998,-1.49999c2.74999,-1.75 6.24998,2.24999 8.49998,0.25c2.24999,-2 4.99999,-4.99999 8.99998,-1c3.99999,3.99999 6.24998,5.99999 8.74998,3.99999" id="svg_44"/>
  </g>
  <g opacity="0.44" stroke="null" id="svg_31">
   <path stroke="#e0e0e0" fill="none" opacity="0.5" d="m207.244923,100.501214l-1.840047,-0.75013" id="svg_23"/>
   <path stroke="#e0e0e0" fill="none" d="m-10.672495,84.501244c0.788605,-2.49998 6.308831,-7.99998 8.411768,-7.99998c2.102947,0 7.097436,-6.24998 7.886041,-4.74998c0.788605,1.5 1.5772,6.49998 4.205884,0.75c2.628673,-5.74999 7.886031,-3.74999 8.937505,-2.74999c1.051474,0.99999 2.891542,4.74999 6.045963,0c3.15441,-4.74999 8.148899,-4.99999 10.514704,-2.75c2.365816,2.25 9.463241,9.74998 12.354794,10.99998c2.891542,1.25 12.617652,4.24999 16.297799,7.24998c3.680158,3 12.88053,11.74998 16.034941,10.49998c3.15441,-1.25 4.468752,-3.74999 9.200373,-3.49999c4.731621,0.25 11.566188,-1.75 12.88052,-4.99999c1.314342,-3.24999 6.045963,4.74999 9.72611,4.74999c3.680147,0 9.463241,-6.49999 12.354794,-7.99998c2.891542,-1.5 6.045952,-4 9.200373,-3.75c3.15441,0.25 7.360294,1.75 9.988978,-2.99999c2.628673,-4.74999 9.726099,5.74999 13.143388,7.74998c3.417279,2 6.308821,6.74999 11.040441,8.24998c4.731621,1.5 10.777583,4.74999 15.246336,4.74999l14.720599,2.75c3.680147,1.99999 7.886031,2.49999 10.777583,-3.49999" id="svg_24"/>
   <path stroke="#e0e0e0" fill="none" fill-opacity="null" opacity="0.5" d="m310.026236,86.001254" id="svg_25"/>
   <path stroke="#e0e0e0" fill="none" fill-opacity="null" d="m208.033529,97.251224l4.468773,-6.00012c0.262847,0.00013 2.365784,-2.24986 5.520205,0.75013c3.15441,3 8.937505,3.74999 11.040441,2.75c2.102947,-1 5.783094,-3.5 12.091925,-3.74999c6.308821,-0.25 8.937505,-2.5 14.983457,-0.25c6.045963,2.24999 12.354794,1.99999 17.086414,1.49999c4.731621,-0.5 11.829046,-1 15.509204,0.5c3.680147,1.5 10.777573,1.75 14.983457,6.24999c4.205894,4.49999 4.994489,9.99997 13.406267,6.49998c8.411768,-3.49999 4.731621,-4.49999 9.72611,-3.49999c4.994479,1 12.091915,1.5 15.246325,0.25c3.154421,-1.25 11.30332,1.99999 13.143399,5.24999c1.840068,3.24999 6.308821,8.24998 10.514704,7.74998c4.205884,-0.5 2.628684,5.99999 8.14891,-1.99999c5.520215,-7.99999 9.463241,7.99998 18.663614,9.24997c9.200373,1.25 13.931994,-8.49998 18.926483,-10.24997c4.994489,-1.75 9.463241,-4.99999 12.88052,-9.74998c3.417279,-4.74999 16.560667,-9.49998 17.875009,-11.74998c1.314342,-2.24999 8.674636,-11.49997 14.45773,-12.74997c5.783094,-1.24999 10.251846,-13.24997 13.406257,-12.74997c3.154421,0.5 10.251846,6.74999 11.829057,7.24999c1.5772,0.49999 23.658103,3.74999 27.33825,9.49997" id="svg_26"/>
   <path stroke="#e0e0e0" fill="none" fill-opacity="null" d="m508.754303,81.751264c4.205884,5.99999 11.040452,5.49999 14.194862,6.99998c3.154421,1.5 7.886041,1.5 11.040452,1.5c3.15441,0 11.566178,5.24998 13.143388,7.74998c1.57721,2.5 3.417279,8.24999 11.040452,8.24999c7.623163,0 14.720599,1.74999 21.292288,-3c6.571699,-4.74999 9.463241,-6.24998 13.931994,-9.24998c4.468752,-2.99999 10.251846,-8.99998 14.983467,-8.99998c4.731621,0 12.617652,-2.24999 14.194862,-4.24999c1.57721,-1.99999 11.040452,-8.49998 17.875009,-4.74999c6.834568,3.74999 13.931994,3.25 17.612151,5.24999c3.680147,2 13.669125,8.49998 18.926483,8.74998c5.257347,0.25 20.766551,2.5 23.132366,3.24999c2.365805,0.75 7.097426,6.24999 14.194862,-0.24999c7.097426,-6.49999 13.143388,-4.25 13.931994,-4.25c0.788605,0 9.200373,-5.24998 12.88052,-4.74998c3.680147,0.49999 11.829057,-3 15.246336,-1.25c3.417279,1.74999 11.829046,5.24999 17.086404,5.99998c5.257357,0.75 10.777583,7.99999 15.509204,7.24999c4.731621,-0.75 8.411768,-0.75 13.143388,-4.99999c4.731621,-4.24999 10.251846,-2.49999 10.251846,-2.49999" id="svg_27"/>
   <path stroke="#e0e0e0" fill="none" fill-opacity="null" d="m812.36663,88.501244c16.297809,6.74998 8.937505,1.49999 9.988978,3.75c1.051474,2.24998 7.097426,4.49998 10.777583,4.74998c3.680147,0.25 2.628673,2.24999 14.45773,-2.5c11.829046,-4.74998 12.88052,-0.5 17.086404,-2.24998c4.205884,-1.75 8.148899,-6.99999 12.091915,-6.49999c3.943015,0.5 4.468752,3.49999 13.143399,-1.74999c8.674636,-5.24999 4.731621,-4.25 16.03493,-5.99999c11.30332,-1.75 13.669125,-6.74999 19.977956,-9.49998c6.308831,-2.74999 16.560667,-7.24998 19.977956,-7.24998c3.417279,0 7.097426,1.49999 10.514704,-2.5c3.417289,-3.99999 10.514715,-3.74999 14.45773,-5.24999c3.943026,-1.49999 13.931994,-6.74998 20.766561,-1.49999c6.834568,5.24998 15.772072,6.49998 19.715088,6.49998c3.943015,0 10.251846,3.99999 16.297799,4.74999c6.045963,0.75 14.45773,8.24998 19.452219,2.5c4.994489,-5.74999 6.834568,-12.99998 13.143388,-12.74998c6.308831,0.25 10.251846,-1.74999 17.086414,-1.74999c6.834557,0 10.251846,-6.49999 15.772072,-5.24999" id="svg_28"/>
   <path stroke="#e0e0e0" fill="none" fill-opacity="null" d="m1108.092936,40.501224" id="svg_29"/>
   <path stroke="#e0e0e0" fill="none" fill-opacity="null" d="m1092.583722,46.001334l9.72612,-4.25012c0.262858,0.00013 7.88602,-2.74986 9.726099,-1.49987c1.840068,1.25 9.726099,1.5 12.617652,3.74999c2.891542,2.25 6.045963,0 8.937505,3c2.891542,2.99999 8.148899,4.99999 12.091915,4.99999c3.943026,0 13.143399,3.49999 15.246336,4.74999c2.102947,1.25 10.514715,6.74999 21.02943,10.99997c10.514715,4.25 7.097426,-3.49999 11.566178,3.75c4.468752,7.24998 5.257357,-0.25 9.200373,4.24998c3.943026,4.49999 6.308831,5.99999 10.251846,8.99998c3.943015,3 7.623173,2.75 9.988978,6.5c2.365816,3.74998 10.251846,7.74998 13.669125,6.74998c3.417279,-0.99999 9.200373,0.25 12.091925,-1.49999c2.891542,-1.75 6.571689,2.24999 8.937505,0.25c2.365805,-2 5.257357,-4.99999 9.463241,-1c4.205884,3.99999 6.571689,5.99999 9.200373,3.99999" id="svg_30"/>
  </g>
 </g>
</svg>